# xmcd
#
# Track frame offsets:
# 150
# 18790
# 44417
# 68324
# 87991
# 109506
# 124162
# 144142
# 169859
#
# Disc length: 2598 seconds
#
#
# Revision: 0
# Processed by: cddbd v1.5.1PL2 Copyright (c) Steve Scherf et al.
# Submitted via: FreeRIP 2.943 
#
DISCID=660a2409
DTITLE=SVEIN INC. - Live
DYEAR=1900
DGENRE=Blues
TTITLE0=Born Too Late
TTITLE1=Kiss Me
TTITLE2=Hangin' Over
TTITLE3=I'm The Mand
TTITLE4=Not Allowed
TTITLE5=The Day I Left My Job
TTITLE6=Having Fun
TTITLE7=Rock Me One More Time
TTITLE8=Sleepless Nights
EXTD=
EXTT0=
EXTT1=
EXTT2=
EXTT3=
EXTT4=
EXTT5=
EXTT6=
EXTT7=
EXTT8=
PLAYORDER=
